# Blender 5.0.1
# www.blender.org
o Gizmo
v -0.300000 0.300000 -0.300000
v -0.300000 0.300000 11.700001
v 0.420000 0.300000 -0.300000
v 0.420000 0.300000 11.700001
v -0.300000 -0.420000 -0.300000
v -0.300000 -0.420000 11.700001
v 0.420000 -0.420000 -0.300000
v 0.420000 -0.420000 11.700001
v -0.300000 0.300000 0.420000
v 0.420000 0.300000 0.420000
v 0.420000 -0.420000 0.420000
v -0.300000 -0.420000 0.420000
v 11.700001 0.300000 0.420000
v 11.700001 0.300000 -0.300000
v 11.700001 -0.420000 -0.300000
v 11.700001 -0.420000 0.420000
v 0.420000 -11.700001 0.420000
v 0.420000 -11.700001 -0.300000
v -0.300000 -11.700001 -0.300000
v -0.300000 -11.700001 0.420000
vn -0.0000 1.0000 -0.0000
vn 1.0000 -0.0000 -0.0000
vn -0.0000 -1.0000 -0.0000
vn -1.0000 -0.0000 -0.0000
vn -0.0000 -0.0000 -1.0000
vn -0.0000 -0.0000 1.0000
vt 0.500000 0.000000
vt 0.625000 0.000000
vt 0.625000 0.250000
vt 0.500000 0.250000
vt 0.625000 0.500000
vt 0.500000 0.500000
vt 0.625000 0.750000
vt 0.500000 0.750000
vt 0.625000 1.000000
vt 0.500000 1.000000
vt 0.125000 0.500000
vt 0.375000 0.500000
vt 0.375000 0.750000
vt 0.125000 0.750000
vt 0.875000 0.500000
vt 0.875000 0.750000
vt 0.375000 1.000000
vt 0.375000 0.000000
vt 0.375000 0.250000
s 0
f 9/1/1 2/2/1 4/3/1 10/4/1
f 10/4/2 4/3/2 8/5/2 11/6/2
f 11/6/3 8/5/3 6/7/3 12/8/3
f 12/8/4 6/7/4 2/9/4 9/10/4
f 3/11/5 7/12/5 5/13/5 1/14/5
f 8/5/6 4/15/6 2/16/6 6/7/6
f 5/13/4 12/8/4 9/10/4 1/17/4
f 12/8/4 5/13/4 19/13/4 20/8/4
f 10/4/6 11/6/6 16/6/6 13/4/6
f 1/18/1 9/1/1 10/4/1 3/19/1
f 14/19/2 13/4/2 16/6/2 15/12/2
f 3/19/1 10/4/1 13/4/1 14/19/1
f 11/6/3 7/12/3 15/12/3 16/6/3
f 7/12/5 3/11/5 14/11/5 15/12/5
f 18/12/3 17/6/3 20/8/3 19/13/3
f 5/13/5 7/12/5 18/12/5 19/13/5
f 7/12/2 11/6/2 17/6/2 18/12/2
f 11/6/6 12/8/6 20/8/6 17/6/6
